<mxfile host="app.diagrams.net" modified="2024-05-27T10:28:01.689Z" agent="Mozilla/5.0 (Windows NT 10.0; Win64; x64) AppleWebKit/537.36 (KHTML, like Gecko) Chrome/125.0.0.0 Safari/537.36" etag="vHaQz4cnwE_ymkcDht3V" version="24.4.8" type="github">
  <diagram name="Page-1" id="YDADZ48Di3xZLX271aUz">
    <mxGraphModel dx="1221" dy="647" grid="0" gridSize="10" guides="1" tooltips="1" connect="1" arrows="1" fold="1" page="0" pageScale="1" pageWidth="827" pageHeight="1169" math="0" shadow="0">
      <root>
        <mxCell id="0" />
        <mxCell id="1" parent="0" />
        <mxCell id="f0yLnYQP_B_3VWNw2zJM-2" value="" style="rounded=0;whiteSpace=wrap;html=1;fontFamily=Helvetica;fontSize=11;fontColor=default;labelBackgroundColor=default;fillColor=none;strokeWidth=2;" parent="1" vertex="1">
          <mxGeometry x="242" y="112" width="527" height="702" as="geometry" />
        </mxCell>
        <mxCell id="f0yLnYQP_B_3VWNw2zJM-3" value="&lt;font style=&quot;font-size: 29px;&quot;&gt;MyClinic&lt;/font&gt;" style="text;html=1;align=center;verticalAlign=middle;resizable=0;points=[];autosize=1;strokeColor=none;fillColor=none;" parent="1" vertex="1">
          <mxGeometry x="446" y="50" width="128" height="47" as="geometry" />
        </mxCell>
        <mxCell id="f0yLnYQP_B_3VWNw2zJM-4" style="rounded=0;orthogonalLoop=1;jettySize=auto;html=1;startArrow=none;startFill=0;endArrow=none;endFill=0;" parent="1" source="f0yLnYQP_B_3VWNw2zJM-5" target="f0yLnYQP_B_3VWNw2zJM-7" edge="1">
          <mxGeometry relative="1" as="geometry" />
        </mxCell>
        <mxCell id="f0yLnYQP_B_3VWNw2zJM-5" value="Patient" style="shape=umlActor;html=1;verticalLabelPosition=bottom;verticalAlign=top;align=center;strokeWidth=2;" parent="1" vertex="1">
          <mxGeometry x="146" y="417" width="30" height="60" as="geometry" />
        </mxCell>
        <mxCell id="f0yLnYQP_B_3VWNw2zJM-6" value="Doctor" style="shape=umlActor;html=1;verticalLabelPosition=bottom;verticalAlign=top;align=center;strokeWidth=2;" parent="1" vertex="1">
          <mxGeometry x="146" y="627" width="30" height="60" as="geometry" />
        </mxCell>
        <mxCell id="f0yLnYQP_B_3VWNw2zJM-7" value="Register patient" style="shape=ellipse;html=1;strokeWidth=3;fontStyle=1;whiteSpace=wrap;align=center;perimeter=ellipsePerimeter;" parent="1" vertex="1">
          <mxGeometry x="322" y="129" width="120" height="60" as="geometry" />
        </mxCell>
        <mxCell id="f0yLnYQP_B_3VWNw2zJM-8" value="Send email" style="shape=ellipse;html=1;strokeWidth=3;fontStyle=1;whiteSpace=wrap;align=center;perimeter=ellipsePerimeter;" parent="1" vertex="1">
          <mxGeometry x="578" y="129" width="120" height="60" as="geometry" />
        </mxCell>
        <mxCell id="f0yLnYQP_B_3VWNw2zJM-9" value="Schedule appointment" style="shape=ellipse;html=1;strokeWidth=3;fontStyle=1;whiteSpace=wrap;align=center;perimeter=ellipsePerimeter;" parent="1" vertex="1">
          <mxGeometry x="326" y="234" width="120" height="60" as="geometry" />
        </mxCell>
        <mxCell id="f0yLnYQP_B_3VWNw2zJM-10" value="Check availability" style="shape=ellipse;html=1;strokeWidth=3;fontStyle=1;whiteSpace=wrap;align=center;perimeter=ellipsePerimeter;" parent="1" vertex="1">
          <mxGeometry x="580" y="234" width="120" height="60" as="geometry" />
        </mxCell>
        <mxCell id="f0yLnYQP_B_3VWNw2zJM-11" value="&lt;b&gt;&amp;lt;&amp;lt;include&amp;gt;&amp;gt;&lt;/b&gt;" style="edgeStyle=none;html=1;endArrow=open;verticalAlign=bottom;dashed=1;labelBackgroundColor=none;rounded=0;strokeWidth=2;" parent="1" source="f0yLnYQP_B_3VWNw2zJM-9" target="f0yLnYQP_B_3VWNw2zJM-10" edge="1">
          <mxGeometry width="160" relative="1" as="geometry">
            <mxPoint x="446" y="231" as="sourcePoint" />
            <mxPoint x="606" y="231" as="targetPoint" />
          </mxGeometry>
        </mxCell>
        <mxCell id="f0yLnYQP_B_3VWNw2zJM-15" style="edgeStyle=none;rounded=0;orthogonalLoop=1;jettySize=auto;html=1;strokeColor=default;align=center;verticalAlign=middle;fontFamily=Helvetica;fontSize=11;fontColor=default;labelBackgroundColor=default;startArrow=none;startFill=0;endArrow=none;endFill=0;" parent="1" source="f0yLnYQP_B_3VWNw2zJM-16" target="f0yLnYQP_B_3VWNw2zJM-5" edge="1">
          <mxGeometry relative="1" as="geometry" />
        </mxCell>
        <mxCell id="f0yLnYQP_B_3VWNw2zJM-16" value="Display doctors" style="shape=ellipse;html=1;strokeWidth=3;fontStyle=1;whiteSpace=wrap;align=center;perimeter=ellipsePerimeter;" parent="1" vertex="1">
          <mxGeometry x="322" y="502" width="120" height="60" as="geometry" />
        </mxCell>
        <mxCell id="f0yLnYQP_B_3VWNw2zJM-17" style="edgeStyle=none;rounded=0;orthogonalLoop=1;jettySize=auto;html=1;strokeColor=default;align=center;verticalAlign=middle;fontFamily=Helvetica;fontSize=11;fontColor=default;labelBackgroundColor=default;startArrow=none;startFill=0;endArrow=none;endFill=0;" parent="1" source="f0yLnYQP_B_3VWNw2zJM-19" target="f0yLnYQP_B_3VWNw2zJM-6" edge="1">
          <mxGeometry relative="1" as="geometry" />
        </mxCell>
        <mxCell id="f0yLnYQP_B_3VWNw2zJM-18" style="edgeStyle=none;rounded=0;orthogonalLoop=1;jettySize=auto;html=1;strokeColor=default;align=center;verticalAlign=middle;fontFamily=Helvetica;fontSize=11;fontColor=default;labelBackgroundColor=default;startArrow=none;startFill=0;endArrow=none;endFill=0;" parent="1" source="f0yLnYQP_B_3VWNw2zJM-19" target="f0yLnYQP_B_3VWNw2zJM-5" edge="1">
          <mxGeometry relative="1" as="geometry" />
        </mxCell>
        <mxCell id="f0yLnYQP_B_3VWNw2zJM-19" value="Display appointments" style="shape=ellipse;html=1;strokeWidth=3;fontStyle=1;whiteSpace=wrap;align=center;perimeter=ellipsePerimeter;" parent="1" vertex="1">
          <mxGeometry x="322" y="629" width="120" height="60" as="geometry" />
        </mxCell>
        <mxCell id="f0yLnYQP_B_3VWNw2zJM-20" value="Di&lt;span style=&quot;background-color: initial;&quot;&gt;splay message&lt;/span&gt;" style="shape=ellipse;html=1;strokeWidth=3;fontStyle=1;whiteSpace=wrap;align=center;perimeter=ellipsePerimeter;" parent="1" vertex="1">
          <mxGeometry x="584" y="627" width="120" height="60" as="geometry" />
        </mxCell>
        <mxCell id="f0yLnYQP_B_3VWNw2zJM-21" value="&lt;b&gt;&amp;lt;&amp;lt;extend&amp;gt;&amp;gt;&lt;/b&gt;" style="edgeStyle=none;html=1;startArrow=open;endArrow=none;startSize=12;verticalAlign=bottom;dashed=1;labelBackgroundColor=none;rounded=0;strokeWidth=2;" parent="1" source="f0yLnYQP_B_3VWNw2zJM-19" target="f0yLnYQP_B_3VWNw2zJM-20" edge="1">
          <mxGeometry width="160" relative="1" as="geometry">
            <mxPoint x="432" y="737" as="sourcePoint" />
            <mxPoint x="592" y="737" as="targetPoint" />
          </mxGeometry>
        </mxCell>
        <mxCell id="f0yLnYQP_B_3VWNw2zJM-22" style="edgeStyle=none;rounded=0;orthogonalLoop=1;jettySize=auto;html=1;strokeColor=default;align=center;verticalAlign=middle;fontFamily=Helvetica;fontSize=11;fontColor=default;labelBackgroundColor=default;startArrow=none;startFill=0;endArrow=none;endFill=0;" parent="1" source="f0yLnYQP_B_3VWNw2zJM-23" target="f0yLnYQP_B_3VWNw2zJM-5" edge="1">
          <mxGeometry relative="1" as="geometry" />
        </mxCell>
        <mxCell id="f0yLnYQP_B_3VWNw2zJM-23" value="Review doctor" style="shape=ellipse;html=1;strokeWidth=3;fontStyle=1;whiteSpace=wrap;align=center;perimeter=ellipsePerimeter;" parent="1" vertex="1">
          <mxGeometry x="325" y="736" width="120" height="60" as="geometry" />
        </mxCell>
        <mxCell id="f0yLnYQP_B_3VWNw2zJM-24" value="Compute analytics" style="shape=ellipse;html=1;strokeWidth=3;fontStyle=1;whiteSpace=wrap;align=center;perimeter=ellipsePerimeter;" parent="1" vertex="1">
          <mxGeometry x="587" y="732" width="120" height="60" as="geometry" />
        </mxCell>
        <mxCell id="f0yLnYQP_B_3VWNw2zJM-25" value="&lt;b&gt;&amp;lt;&amp;lt;include&amp;gt;&amp;gt;&lt;/b&gt;" style="edgeStyle=none;html=1;endArrow=open;verticalAlign=bottom;dashed=1;labelBackgroundColor=none;rounded=0;strokeWidth=2;" parent="1" source="f0yLnYQP_B_3VWNw2zJM-23" target="f0yLnYQP_B_3VWNw2zJM-24" edge="1">
          <mxGeometry width="160" relative="1" as="geometry">
            <mxPoint x="472" y="827" as="sourcePoint" />
            <mxPoint x="632" y="796" as="targetPoint" />
          </mxGeometry>
        </mxCell>
        <mxCell id="f0yLnYQP_B_3VWNw2zJM-26" style="edgeStyle=none;rounded=0;orthogonalLoop=1;jettySize=auto;html=1;strokeColor=default;align=center;verticalAlign=middle;fontFamily=Helvetica;fontSize=11;fontColor=default;labelBackgroundColor=default;startArrow=none;startFill=0;endArrow=none;endFill=0;" parent="1" source="f0yLnYQP_B_3VWNw2zJM-27" target="f0yLnYQP_B_3VWNw2zJM-5" edge="1">
          <mxGeometry relative="1" as="geometry" />
        </mxCell>
        <mxCell id="f0yLnYQP_B_3VWNw2zJM-27" value="Check-in" style="shape=ellipse;html=1;strokeWidth=3;fontStyle=1;whiteSpace=wrap;align=center;perimeter=ellipsePerimeter;" parent="1" vertex="1">
          <mxGeometry x="322" y="406" width="120" height="60" as="geometry" />
        </mxCell>
        <mxCell id="f0yLnYQP_B_3VWNw2zJM-31" style="rounded=0;orthogonalLoop=1;jettySize=auto;html=1;startArrow=none;startFill=0;endArrow=none;endFill=0;" parent="1" source="f0yLnYQP_B_3VWNw2zJM-5" target="f0yLnYQP_B_3VWNw2zJM-9" edge="1">
          <mxGeometry relative="1" as="geometry">
            <mxPoint x="205" y="-42" as="sourcePoint" />
            <mxPoint x="338" y="-42" as="targetPoint" />
          </mxGeometry>
        </mxCell>
        <mxCell id="f0yLnYQP_B_3VWNw2zJM-32" value="&lt;b&gt;&amp;lt;&amp;lt;include&amp;gt;&amp;gt;&lt;/b&gt;" style="edgeStyle=none;html=1;endArrow=open;verticalAlign=bottom;dashed=1;labelBackgroundColor=none;rounded=0;strokeWidth=2;" parent="1" source="f0yLnYQP_B_3VWNw2zJM-7" target="f0yLnYQP_B_3VWNw2zJM-8" edge="1">
          <mxGeometry width="160" relative="1" as="geometry">
            <mxPoint x="401.14" y="177.01" as="sourcePoint" />
            <mxPoint x="537.14" y="172.01" as="targetPoint" />
          </mxGeometry>
        </mxCell>
      </root>
    </mxGraphModel>
  </diagram>
</mxfile>
